# Blender 3.4.1
# www.blender.org
mtllib fireplace.mtl
o ĞšÑƒĞ±
v -2.200000 -2.000000 0.700000
v -2.200000 2.000000 0.700000
v -2.200000 -2.000000 -0.700000
v -2.200000 2.000000 -0.700000
v 2.200000 -2.000000 0.700000
v 2.200000 2.000000 0.700000
v 2.200000 -2.000000 -0.700000
v 2.200000 2.000000 -0.700000
v 2.200000 1.159148 0.700000
v 2.200000 1.159148 -0.700000
v -2.200000 1.159148 -0.700000
v -2.200000 1.159148 0.700000
v -1.655263 -2.000000 -0.700000
v 1.655263 -2.000000 -0.700000
v 1.655263 2.000000 -0.700000
v -1.655263 2.000000 -0.700000
v 1.655263 -2.000000 0.700000
v -1.655263 -2.000000 0.700000
v -1.655263 2.000000 0.700000
v 1.655263 2.000000 0.700000
v -1.655263 1.159148 0.700000
v 1.655263 1.159148 0.700000
v 1.655263 1.159148 -0.700000
v -1.655263 1.159148 -0.700000
v -1.655263 -2.000000 0.467027
v 1.655263 -2.000000 0.467027
v 1.655263 1.159148 0.467027
v -1.655263 1.159148 0.467027
v 1.446935 -2.000000 -0.700000
v 1.446935 -2.000000 -0.607766
v -1.457774 -2.000000 -0.700000
v -1.457774 -2.000000 -0.607765
v 1.446935 -1.436534 -0.700000
v 1.446935 -1.436534 -0.607766
v -1.457774 -1.436534 -0.700000
v -1.457774 -1.436534 -0.607765
v -0.195090 -1.000000 -14.742715
v -0.195090 1.000000 -15.958794
vn -1.0000 -0.0000 -0.0000
vn -0.0000 1.0000 -0.0000
vn 1.0000 -0.0000 -0.0000
vn -0.0000 -0.0000 -1.0000
vn -0.0000 -1.0000 -0.0000
vn -0.0000 -0.0000 1.0000
vt 0.125000 0.750000
vt 0.375000 1.000000
vt 0.375000 0.000000
vt 0.625000 0.000000
vt 0.875000 0.750000
vt 0.625000 1.000000
vt 0.125000 0.500000
vt 0.375000 0.250000
vt 0.875000 0.500000
vt 0.625000 0.250000
vt 0.375000 0.750000
vt 0.625000 0.750000
vt 0.375000 0.500000
vt 0.625000 0.500000
vt 0.572447 0.750000
vt 0.572447 0.500000
vt 0.572447 0.250000
vt 0.572447 1.000000
vt 0.572447 0.000000
vt 0.155951 0.500000
vt 0.375000 0.280951
vt 0.344049 0.500000
vt 0.375000 0.469049
vt 0.655951 0.500000
vt 0.625000 0.469049
vt 0.844049 0.500000
vt 0.625000 0.280951
vt 0.344049 0.750000
vt 0.375000 0.780951
vt 0.155951 0.750000
vt 0.375000 0.969049
vt 0.844049 0.750000
vt 0.625000 0.969049
vt 0.655951 0.750000
vt 0.625000 0.780951
vt 0.572447 0.969049
vt 0.572447 0.780951
vt 0.572447 0.469049
vt 0.572447 0.280951
vt 0.155951 0.500000
vt 0.375000 0.280951
vt 0.344049 0.500000
vt 0.375000 0.469049
vt 0.572447 0.469049
vt 0.572447 0.280951
vt 0.375000 0.000000
vt 0.375000 1.000000
vt 0.125000 0.750000
vt 0.625000 0.000000
vt 0.625000 1.000000
vt 0.875000 0.750000
vt 0.375000 0.250000
vt 0.125000 0.500000
vt 0.625000 0.250000
vt 0.875000 0.500000
vt 0.375000 0.750000
vt 0.625000 0.750000
vt 0.375000 0.500000
vt 0.625000 0.500000
s 0
f 12/19/1 2/4/1 4/10/1 11/17/1
f 8/14/2 15/24/2 20/34/2 6/12/2
f 10/16/3 8/14/3 6/12/3 9/15/3
f 3/8/4 11/17/4 24/39/4 13/21/4
f 3/7/5 13/20/5 18/30/5 1/1/5
f 9/15/6 6/12/6 20/35/6 22/37/6
f 16/26/2 4/9/2 2/5/2 19/32/2
f 23/38/4 15/25/4 8/14/4 10/16/4
f 21/36/6 19/33/6 2/6/6 12/18/6
f 14/22/5 7/13/5 5/11/5 17/28/5
f 16/26/2 19/32/2 20/34/2 15/24/2
f 14/22/5 17/28/5 18/30/5 13/20/5
f 21/36/6 18/31/6 17/29/6 22/37/6
f 14/22/2 13/20/2 25/40/2 26/42/2
f 11/17/4 4/10/4 16/27/4 24/39/4
f 15/25/4 23/38/4 24/39/4 16/27/4
f 19/33/6 21/36/6 22/37/6 20/35/6
f 18/31/6 21/36/6 12/18/6 1/2/6
f 14/23/4 23/38/4 10/16/4 7/13/4
f 5/11/6 9/15/6 22/37/6 17/29/6
f 7/13/3 10/16/3 9/15/3 5/11/3
f 1/3/1 12/19/1 11/17/1 3/8/1
f 27/44/4 26/43/4 25/41/4 28/45/4
f 13/21/3 24/39/3 28/45/3 25/41/3
f 23/38/1 14/23/1 26/43/1 27/44/1
f 24/39/5 23/38/5 27/44/5 28/45/5
f 29/46/5 30/49/5 32/54/5 31/52/5
f 31/52/1 32/54/1 36/59/1 35/58/1
f 35/58/2 36/59/2 34/57/2 33/56/2
f 33/56/3 34/57/3 30/50/3 29/47/3
f 31/53/4 35/58/4 33/56/4 29/48/4
f 36/59/6 32/55/6 30/51/6 34/57/6
l 38 37
