# Blender 3.4.1
# www.blender.org
mtllib picture.mtl
o ĞšÑƒĞ±
v -1.000000 -1.000000 0.080000
v -1.000000 1.000000 0.080000
v -1.000000 -1.000000 -0.080000
v -1.000000 1.000000 -0.080000
v 1.000000 -1.000000 0.080000
v 1.000000 1.000000 0.080000
v 1.000000 -1.000000 -0.080000
v 1.000000 1.000000 -0.080000
v -1.000000 0.882564 0.080000
v -1.000000 -0.882564 0.080000
v -1.000000 -0.882564 -0.080000
v -1.000000 0.882564 -0.080000
v 1.000000 -0.882564 -0.080000
v 1.000000 0.882564 -0.080000
v 1.000000 -0.882564 0.080000
v 1.000000 0.882564 0.080000
v -0.866368 -0.882564 0.049433
v 0.866368 -0.882564 0.049433
v -0.866368 0.882564 0.049433
v 0.866368 0.882564 0.049433
v 0.866368 1.000000 0.080000
v -0.866368 1.000000 0.080000
v 0.866368 -1.000000 0.080000
v -0.866368 -1.000000 0.080000
v -0.866368 1.000000 -0.080000
v 0.866368 1.000000 -0.080000
v 0.866368 -1.000000 -0.080000
v -0.866368 -1.000000 -0.080000
v 0.866368 0.882564 0.080000
v -0.866368 0.882564 0.080000
v -0.866368 -0.882564 0.080000
v 0.866368 -0.882564 0.080000
v 0.866368 0.882564 -0.080000
v -0.866368 0.882564 -0.080000
v 0.866368 -0.882564 -0.080000
v -0.866368 -0.882564 -0.080000
vn -0.0000 -0.0000 -1.0000
vn 1.0000 -0.0000 -0.0000
vn -0.0000 1.0000 -0.0000
vn -1.0000 -0.0000 -0.0000
vn -0.0000 -0.0000 1.0000
vn -0.0000 -1.0000 -0.0000
vt 0.375000 0.000000
vt 0.375000 1.000000
vt 0.125000 0.750000
vt 0.875000 0.750000
vt 0.625000 0.000000
vt 0.625000 1.000000
vt 0.375000 0.250000
vt 0.125000 0.500000
vt 0.875000 0.500000
vt 0.625000 0.250000
vt 0.375000 0.750000
vt 0.625000 0.750000
vt 0.375000 0.500000
vt 0.625000 0.500000
vt 0.610321 0.000000
vt 0.610321 1.000000
vt 0.389679 0.000000
vt 0.389679 1.000000
vt 0.389679 0.250000
vt 0.610321 0.250000
vt 0.389679 0.500000
vt 0.610321 0.500000
vt 0.389679 0.750000
vt 0.610321 0.750000
vt 0.389679 0.266704
vt 0.389679 0.483296
vt 0.610321 0.266704
vt 0.610321 0.483296
vt 0.625000 0.766704
vt 0.641704 0.750000
vt 0.858296 0.750000
vt 0.625000 0.983296
vt 0.358296 0.750000
vt 0.375000 0.766704
vt 0.141704 0.750000
vt 0.375000 0.983296
vt 0.625000 0.266704
vt 0.858296 0.500000
vt 0.625000 0.483296
vt 0.641704 0.500000
vt 0.375000 0.483296
vt 0.358296 0.500000
vt 0.375000 0.266704
vt 0.141704 0.500000
vt 0.610321 0.766704
vt 0.610321 0.983296
vt 0.389679 0.983296
vt 0.389679 0.766704
vt 0.610321 0.483296
vt 0.610321 0.266704
vt 0.389679 0.483296
vt 0.389679 0.266704
s 0
f 12/20/1 4/10/1 25/37/1 34/50/1
f 7/13/2 13/21/2 15/23/2 5/11/2
f 25/38/3 4/9/3 2/4/3 22/31/3
f 1/1/4 10/17/4 11/19/4 3/7/4
f 24/36/5 31/47/5 10/18/5 1/2/5
f 5/11/5 15/23/5 32/48/5 23/34/5
f 16/24/5 29/45/5 32/48/5 15/23/5
f 14/22/2 8/14/2 6/12/2 16/24/2
f 3/7/1 11/19/1 36/52/1 28/43/1
f 9/15/4 2/5/4 4/10/4 12/20/4
f 12/20/1 34/50/1 36/52/1 11/19/1
f 14/22/2 16/24/2 15/23/2 13/21/2
f 20/28/1 18/26/1 17/25/1 19/27/1
f 9/15/4 12/20/4 11/19/4 10/17/4
f 8/14/3 26/40/3 21/30/3 6/12/3
f 33/49/1 14/22/1 13/21/1 35/51/1
f 30/46/5 9/16/5 10/18/5 31/47/5
f 33/49/1 26/39/1 8/14/1 14/22/1
f 27/41/1 35/51/1 13/21/1 7/13/1
f 16/24/5 6/12/5 21/29/5 29/45/5
f 27/42/6 7/13/6 5/11/6 23/33/6
f 3/8/6 28/44/6 24/35/6 1/3/6
f 26/39/1 33/49/1 34/50/1 25/37/1
f 30/46/5 31/47/5 32/48/5 29/45/5
f 36/52/2 34/50/2 19/27/2 17/25/2
f 22/32/5 30/46/5 29/45/5 21/29/5
f 35/51/1 27/41/1 28/43/1 36/52/1
f 25/38/3 22/31/3 21/30/3 26/40/3
f 27/42/6 23/33/6 24/35/6 28/44/6
f 31/47/5 24/36/5 23/34/5 32/48/5
f 30/46/5 22/32/5 2/6/5 9/16/5
f 33/49/4 35/51/4 18/26/4 20/28/4
f 34/50/6 33/49/6 20/28/6 19/27/6
f 35/51/3 36/52/3 17/25/3 18/26/3
